<svg width="124" height="165" viewBox="0 0 124 165" fill="none" xmlns="http://www.w3.org/2000/svg">
<path d="M49.9601 96.6762L66.4449 106.194L32.9696 164.175L23.3615 142.746L49.9601 96.6762Z" fill="#418ED6"/>
<path d="M49.9601 96.6762L33.4754 87.1587L7.57054e-06 145.14L23.3615 142.746L49.9601 96.6762Z" fill="#2B63A6"/>
<path d="M73.4783 96.6762L56.9935 106.194L90.4688 164.175L100.077 142.746L73.4783 96.6762Z" fill="#2B63A6"/>
<path d="M73.4783 96.6762L89.9631 87.1587L123.438 145.14L100.077 142.746L73.4783 96.6762Z" fill="#418ED6"/>
<circle cx="61.6926" cy="56.7539" r="56.7539" fill="#E3E3E3"/>
<circle cx="61.6926" cy="56.7539" r="44.3016" fill="#595959"/>
<mask id="mask0_105_16" style="mask-type:alpha" maskUnits="userSpaceOnUse" x="19" y="17" width="90" height="89">
<circle cx="64.0574" cy="61.4834" r="44.4047" fill="#C28B37"/>
</mask>
<g mask="url(#mask0_105_16)">
<circle cx="61.6926" cy="56.7539" r="44.4047" fill="url(#paint0_linear_105_16)"/>
</g>
<path d="M61.9321 25.8625L71.5108 45.02L90.6683 47.4147L77.5135 62.1659L81.0895 83.3349L61.9321 73.7561L42.7747 83.3349L46.3827 62.1659L33.196 47.4147L52.3534 45.02L61.9321 25.8625Z" fill="url(#paint1_linear_105_16)"/>
<defs>
<linearGradient id="paint0_linear_105_16" x1="61.6926" y1="12.3492" x2="61.6926" y2="101.159" gradientUnits="userSpaceOnUse">
<stop stop-color="#9CA1A3"/>
<stop offset="1" stop-color="#9CA1A3" stop-opacity="0"/>
</linearGradient>
<linearGradient id="paint1_linear_105_16" x1="61.9321" y1="25.8625" x2="61.9321" y2="83.3349" gradientUnits="userSpaceOnUse">
<stop stop-color="#F1F5F5"/>
<stop offset="0.0001" stop-color="white"/>
<stop offset="1" stop-color="#F1F5F5"/>
</linearGradient>
</defs>
</svg>
